<svg xmlns="http://www.w3.org/2000/svg">
    <defs>
        <symbol id="icon-bookmark" viewBox="-5.0 -10.0 110.0 135.0">
            <path d="m79.168 8.332v85.172l-28.938-29.395-29.398 29.246v-85.023z"/>
        </symbol>

        <symbol id="icon-love" viewBox="-5.0 -10.0 110.0 135.0">
            <path d="m95.625 35.371c0 6.6797-2.6016 12.957-7.3203 17.68l-35.355 35.355c-0.81641 0.8125-1.8828 1.2188-2.9492 1.2188s-2.1328-0.40625-2.9453-1.2227l-35.355-35.355c-4.7227-4.7188-7.3242-10.996-7.3242-17.676 0-6.6758 2.6016-12.953 7.3203-17.676 4.7266-4.7227 11.004-7.3203 17.68-7.3203s12.957 2.6016 17.68 7.3203l2.9453 2.9453 2.9453-2.9453c4.7227-4.7227 11-7.3203 17.68-7.3203 6.6758 0 12.957 2.6016 17.68 7.3203 4.7188 4.7227 7.3203 11 7.3203 17.676z"/>
        </symbol>

        <symbol id="icon-star" viewBox="-5.0 -10.0 110.0 135.0">
            <path d="m67.426 58.449 10.727 33.352-28.141-20.277-28.16 20.547 10.727-33.641-27.949-20.93h34.59l10.781-33.184 10.781 33.184h34.566z"/>
        </symbol>

    </defs>
</svg>