<svg xmlns="http://www.w3.org/2000/svg" version="1.1" viewBox="-5.0 -10.0 110.0 135.0">
 <path d="m95.625 35.371c0 6.6797-2.6016 12.957-7.3203 17.68l-35.355 35.355c-0.81641 0.8125-1.8828 1.2188-2.9492 1.2188s-2.1328-0.40625-2.9453-1.2227l-35.355-35.355c-4.7227-4.7188-7.3242-10.996-7.3242-17.676 0-6.6758 2.6016-12.953 7.3203-17.676 4.7266-4.7227 11.004-7.3203 17.68-7.3203s12.957 2.6016 17.68 7.3203l2.9453 2.9453 2.9453-2.9453c4.7227-4.7227 11-7.3203 17.68-7.3203 6.6758 0 12.957 2.6016 17.68 7.3203 4.7188 4.7227 7.3203 11 7.3203 17.676z"/>
<text x="0.0" y="117.5" font-size="5.0" font-weight="bold" font-family="Arbeit Regular, Helvetica, Arial-Unicode, Arial, Sans-serif" fill="#000000">Created by YOSHA</text><text x="0.0" y="122.5" font-size="5.0" font-weight="bold" font-family="Arbeit Regular, Helvetica, Arial-Unicode, Arial, Sans-serif" fill="#000000">from Noun Project</text></svg>